<svg height="260" viewBox="0 0 260 260" width="260" xmlns="http://www.w3.org/2000/svg"><g fill="none" fill-rule="nonzero"><rect fill="#212528" height="260" rx="25" width="260"/><path d="m138.574588 21.3c-14.311751.0239625-26.378782 10.6646438-28.180243 24.85h-8.925579l11.348846-39.05h11.54427v-7.1h-14.212706c-1.580177.0004596-2.97018 1.04347645-3.411049 2.55955l-12.6670747 43.59045h-90.51717144c-1.36295188-.000258-2.60594137.7784434-3.19937233 2.0043255-.59343096 1.2258822-.43271121 2.6828835.41368195 3.7502245l66.74286742 84.23085v69.7646h-28.425412v7.1h63.9571771v-7.1h-28.4254121v-69.7646l49.2896641-62.2031c4.404911 2.7277114 9.485143 4.1712339 14.667513 4.1677 15.698822 0 28.425412-12.7152125 28.425412-28.4s-12.72659-28.4-28.425412-28.4zm-127.6762913 31.95h81.10836l-7.2200546 24.85h-54.1966012zm60.1659377 75.93095-34.8495551-43.98095h46.5110804l-7.9662217 27.40955 6.8220989 1.9809 8.5418363-29.39045h15.7903168zm40.4742336-51.08095h-19.3541524l7.2236078-24.85h31.8222486zm27.03612-7.1c-3.589954.0188029-7.124159-.8871891-10.261574-2.63055l13.047264-16.4649c.846394-1.067341 1.007113-2.5243423.413682-3.7502245-.593431-1.2258821-1.83642-2.0045835-3.199372-2.0043255h-21.024145c1.962241-11.5991813 12.964652-19.4127313 24.574212-17.4522438 11.609561 1.9604875 19.430102 12.9530625 17.46786 24.5522438-1.73395 10.247075-10.616003 17.748225-21.017927 17.75z" fill="#fff" transform="translate(52 24)"/></g></svg>