<svg xmlns="http://www.w3.org/2000/svg" viewBox="0 0 480 480">
  <path fill="#FFF" d="M364.001 48c-32.223.054-59.392 24.033-63.448 56h-20.096l25.552-88h25.992V0h-32a8 8 0 0 0-7.68 5.768L263.801 104h-203.8a8 8 0 0 0-6.272 12.968l150.272 189.816V464h-64v16h144v-16h-64V306.784l110.976-140.176A62.605 62.605 0 0 0 364.001 176c35.346 0 64-28.654 64-64 0-35.346-28.654-64-64-64zM76.537 120h182.616l-16.256 56H120.873l-44.336-56zm135.464 171.112L133.537 192h104.72l-17.936 61.768 15.36 4.464L254.913 192h35.552l-78.464 99.112zM303.129 176h-43.576l16.264-56h71.648l-44.336 56zm60.872-16a47.027 47.027 0 0 1-23.104-5.928l29.376-37.104A8 8 0 0 0 364.001 104h-47.336c4.418-26.139 29.19-43.747 55.329-39.329 26.139 4.418 43.747 29.19 39.329 55.329-3.904 23.092-23.902 39.996-47.322 40z"/>
</svg>
